<?xml version="1.0" encoding="utf-8"?>
<svg version="1.1" xmlns:xlink="http://www.w3.org/1999/xlink" width="40px" height="50px" xmlns="http://www.w3.org/2000/svg">
  <defs>
    <filter x="121px" y="339px" width="40px" height="50px" filterUnits="userSpaceOnUse" id="filter1">
      <feOffset dx="1" dy="1" in="SourceAlpha" result="shadowOffsetInner" />
      <feGaussianBlur stdDeviation="2.5" in="shadowOffsetInner" result="shadowGaussian" />
      <feComposite in2="shadowGaussian" operator="atop" in="SourceAlpha" result="shadowComposite" />
      <feColorMatrix type="matrix" values="0 0 0 0 0  0 0 0 0 0  0 0 0 0 0  0 0 0 0.698039215686274 0  " in="shadowComposite" />
    </filter>
    <g id="widget2">
      <path d="M 140 382.036928468354  C 134.2 372.40734059591  125.5 366.629587872444  125.5 357  C 125.5 351.985714285714  128.4 343.5  140 343.5  C 151.6 343.5  154.5 351.985714285714  154.5 357  C 154.5 366.629587872444  145.8 372.40734059591  140 382.036928468354  Z " fill-rule="nonzero" fill="#009dd9" stroke="none" />
      <path d="M 140 383  C 134 373  125 367  125 357  C 125 351.8  128 343  140 343  C 152 343  155 351.8  155 357  C 155 367  146 373  140 383  Z M 140 381.073856936707  C 145.6 371.81468119182  154 366.259175744887  154 357  C 154 352.171428571429  151.2 344  140 344  C 128.8 344  126 352.171428571429  126 357  C 126 366.259175744887  134.4 371.81468119182  140 381.073856936707  Z " fill-rule="nonzero" fill="#ffffff" stroke="none" />
    </g>
  </defs>
  <g transform="matrix(1 0 0 1 -121 -339 )">
    <use xlink:href="#widget2" filter="url(#filter1)" />
    <use xlink:href="#widget2" />
  </g>
</svg>